<svg xmlns="http://www.w3.org/2000/svg" width="118" height="46" viewBox="0 0 118 46" fill="none">
<g id="Group">
<g id="Group_2">
<path id="Vector" d="M0.558728 20.8563C0.675395 20.2241 0.776506 19.5886 0.912062 18.9609C2.37317 12.1819 8.11651 7.32631 15.0132 7.03333C21.7432 6.74712 27.9387 11.188 29.8487 17.7845C30.261 19.2066 30.481 20.7368 30.4943 22.2198C30.5587 29.5499 30.5232 36.8811 30.5232 44.2123C30.5232 44.4399 30.5232 44.6675 30.5232 44.9481C26.5765 44.9481 22.6954 44.9481 18.7287 44.9481C18.7287 43.8314 18.7287 42.7508 18.7287 41.6701C18.7287 35.2641 18.7321 28.858 18.7287 22.4508C18.7276 20.7684 17.8376 19.4962 16.3976 19.086C15.0387 18.6995 13.5698 19.2573 12.8743 20.5419C12.6032 21.0433 12.4487 21.6755 12.4432 22.2502C12.4076 26.4826 12.4221 30.715 12.421 34.9474C12.421 35.1976 12.421 35.4466 12.421 35.8455C8.42651 35.8455 4.49206 35.8455 0.557617 35.8455C0.558728 30.8502 0.558728 25.8527 0.558728 20.8563Z" fill="white"/>
</g>
<g id="Group_3">
<path id="Vector_2" d="M31.3644 6.854C35.0933 6.854 38.71 6.854 42.43 6.854C42.43 7.16163 42.43 7.43095 42.43 7.69913C42.43 9.13247 42.4489 10.5669 42.4178 12.0003C42.4066 12.5367 42.5555 12.7215 43.11 12.717C46.3711 12.6922 49.6322 12.7057 52.8933 12.7057C53.9878 12.7057 55.0833 12.7372 56.1767 12.6944C56.7422 12.6719 56.8589 12.8882 56.8555 13.4156C56.8366 16.5369 56.8367 19.6583 56.8644 22.7796C56.8689 23.3453 56.6767 23.4738 56.1555 23.4715C51.8455 23.4535 47.5355 23.4726 43.2244 23.4501C42.6178 23.4467 42.3944 23.5853 42.4089 24.2524C42.4544 26.3326 42.42 28.415 42.4255 30.4962C42.4322 32.7972 43.9966 34.4435 46.2789 34.4751C48.9011 34.5112 51.5244 34.483 54.1466 34.483C54.5066 34.483 54.8678 34.483 55.2822 34.483C55.2822 38.2365 55.2822 41.9179 55.2822 45.5677C55.2244 45.6139 55.2066 45.641 55.1889 45.641C51.4522 45.6218 47.6922 45.8607 43.9822 45.5249C36.7144 44.8657 31.3311 38.5193 31.36 31.1239C31.39 23.3081 31.3644 15.4912 31.3633 7.67547C31.3644 7.42644 31.3644 7.17628 31.3644 6.854Z" fill="white"/>
</g>
<g id="Group_4">
<path id="Vector_3" d="M57.6919 6.24109C57.743 2.88875 60.1219 0.224896 63.683 0.203486C66.9863 0.183203 69.5508 2.79973 69.5608 6.11601C69.5708 9.52921 67.0274 12.175 63.7052 12.21C60.4186 12.2438 57.7197 9.56527 57.6919 6.24109Z" fill="#FF5B2E"/>
</g>
<g id="Group_5">
<path id="Vector_4" d="M62.9142 30.8219C62.8242 30.7306 62.7798 30.6258 62.7798 30.5041V18.7061C62.7798 18.5731 62.8242 18.4638 62.9142 18.3793C63.0042 18.2948 63.1076 18.252 63.2276 18.252H65.1253C65.4231 18.252 65.6264 18.3669 65.7342 18.5968L70.1009 25.5674V18.7061C70.1009 18.5731 70.1453 18.4638 70.2353 18.3793C70.3253 18.2948 70.4298 18.252 70.5487 18.252H72.6964C72.8276 18.252 72.9353 18.2948 73.0187 18.3793C73.102 18.4638 73.1442 18.5731 73.1442 18.7061V30.4861C73.1442 30.619 73.102 30.7306 73.0187 30.8219C72.9353 30.9131 72.8276 30.9582 72.6964 30.9582H70.7809C70.5187 30.9582 70.322 30.8433 70.1898 30.6134L65.8231 23.8974V30.5052C65.8231 30.6269 65.7809 30.7317 65.6976 30.823C65.6142 30.9143 65.5064 30.9593 65.3753 30.9593H63.2276C63.1076 30.9582 63.0042 30.9131 62.9142 30.8219Z" fill="white"/>
<path id="Vector_5" d="M75.7829 30.8221C75.6929 30.7308 75.6484 30.626 75.6484 30.5043V18.7063C75.6484 18.5733 75.6929 18.464 75.7829 18.3795C75.8729 18.295 75.9762 18.2522 76.0962 18.2522H78.4951C78.6262 18.2522 78.7362 18.295 78.8262 18.3795C78.9162 18.464 78.9607 18.5733 78.9607 18.7063V30.5055C78.9607 30.6384 78.9162 30.7477 78.8262 30.8322C78.7362 30.9168 78.6262 30.9596 78.4951 30.9596H76.0962C75.9762 30.9584 75.8729 30.9134 75.7829 30.8221Z" fill="white"/>
<path id="Vector_6" d="M81.5822 30.8221C81.4922 30.7308 81.4478 30.626 81.4478 30.5043V18.7063C81.4478 18.5733 81.4922 18.464 81.5822 18.3795C81.6722 18.295 81.7755 18.2522 81.8955 18.2522H83.7933C84.0911 18.2522 84.2944 18.3671 84.4022 18.597L88.7689 25.5676V18.7063C88.7689 18.5733 88.8133 18.464 88.9033 18.3795C88.9933 18.295 89.0977 18.2522 89.2166 18.2522H91.3644C91.4955 18.2522 91.6033 18.295 91.6866 18.3795C91.77 18.464 91.8122 18.5733 91.8122 18.7063V30.4863C91.8122 30.6193 91.77 30.7308 91.6866 30.8221C91.6033 30.9134 91.4955 30.9584 91.3644 30.9584H89.4489C89.1866 30.9584 88.99 30.8435 88.8577 30.6136L84.4911 23.8977V30.5055C84.4911 30.6272 84.4489 30.732 84.3655 30.8232C84.2822 30.9145 84.1744 30.9596 84.0433 30.9596H81.8955C81.7755 30.9584 81.6722 30.9134 81.5822 30.8221Z" fill="white"/>
<path id="Vector_7" d="M96.0977 30.6586C95.3166 30.3386 94.6899 29.8631 94.2188 29.2343C93.7477 28.6055 93.4999 27.8483 93.4766 26.9648C93.4766 26.8555 93.5121 26.762 93.5843 26.6831C93.6555 26.6042 93.751 26.5648 93.871 26.5648H96.2877C96.4421 26.5648 96.5655 26.6076 96.6543 26.6921C96.7443 26.7767 96.8243 26.904 96.8955 27.073C97.0866 28.041 97.701 28.5255 98.7388 28.5255C99.3355 28.5255 99.7943 28.3261 100.117 27.926C100.439 27.526 100.6 26.9524 100.6 26.202V20.9565H94.7999C94.681 20.9565 94.5766 20.9114 94.4866 20.8202C94.3966 20.7289 94.3521 20.6241 94.3521 20.5024V18.7051C94.3521 18.5721 94.3966 18.4628 94.4866 18.3783C94.5755 18.2938 94.6799 18.251 94.7999 18.251H103.463C103.594 18.251 103.704 18.2938 103.794 18.3783C103.884 18.4628 103.929 18.5721 103.929 18.7051V26.2921C103.929 27.3209 103.708 28.1976 103.267 28.9244C102.825 29.6501 102.204 30.2011 101.405 30.5764C100.605 30.9516 99.6877 31.1387 98.6488 31.1387C97.7288 31.1398 96.8788 30.9798 96.0977 30.6586Z" fill="white"/>
<path id="Vector_8" d="M105.064 30.84C104.987 30.7612 104.948 30.6733 104.948 30.5764C104.948 30.5042 104.953 30.449 104.966 30.413L109.171 18.7592C109.207 18.6138 109.284 18.4932 109.403 18.3963C109.522 18.2994 109.678 18.251 109.869 18.251H112.518C112.709 18.251 112.863 18.2994 112.983 18.3963C113.102 18.4932 113.18 18.6138 113.216 18.7592L117.403 30.413L117.439 30.5764C117.439 30.6733 117.4 30.7612 117.322 30.84C117.244 30.9189 117.152 30.9584 117.044 30.9584H114.843C114.557 30.9584 114.366 30.831 114.271 30.5775L113.573 28.7261H108.794L108.114 30.5775C108.019 30.831 107.822 30.9584 107.523 30.9584H105.322C105.229 30.9584 105.142 30.9189 105.064 30.84ZM112.86 26.1118L111.196 21.3194L109.531 26.1118H112.86Z" fill="white"/>
</g>
<g id="Group_6">
<path id="Vector_9" d="M65.411 45.5564C65.3432 45.4876 65.3088 45.4076 65.3088 45.3152V38.1868H62.8932C62.8021 38.1868 62.7232 38.153 62.6554 38.0831C62.5877 38.0144 62.5532 37.9344 62.5532 37.842V36.3692C62.5532 36.2678 62.5877 36.1856 62.6554 36.1213C62.7232 36.0571 62.8021 36.0244 62.8932 36.0244H70.1932C70.2932 36.0244 70.3743 36.0571 70.4377 36.1213C70.501 36.1856 70.5332 36.2678 70.5332 36.3692V37.842C70.5332 37.9434 70.501 38.0257 70.4377 38.0899C70.3743 38.1541 70.2932 38.1857 70.1932 38.1857H67.7777V45.3141C67.7777 45.4054 67.7454 45.4865 67.6821 45.5552C67.6188 45.624 67.5377 45.6589 67.4377 45.6589H65.6466C65.5577 45.66 65.4788 45.6251 65.411 45.5564Z" fill="white"/>
<path id="Vector_10" d="M71.8698 45.5564C71.802 45.4877 71.7676 45.4077 71.7676 45.3153V36.3705C71.7676 36.269 71.802 36.1868 71.8698 36.1225C71.9376 36.0583 72.0165 36.0256 72.1076 36.0256H78.4442C78.5431 36.0256 78.6254 36.0583 78.6887 36.1225C78.752 36.1868 78.7831 36.269 78.7831 36.3705V37.6641C78.7831 37.7553 78.7509 37.8365 78.6887 37.9052C78.6254 37.9739 78.5442 38.0089 78.4442 38.0089H74.1154V39.867H78.1454C78.2442 39.867 78.3265 39.902 78.3898 39.9707C78.4531 40.0394 78.4842 40.124 78.4842 40.2254V41.4221C78.4842 41.5133 78.452 41.5945 78.3898 41.6632C78.3265 41.732 78.2454 41.7669 78.1454 41.7669H74.1154V43.6803H78.5531C78.6531 43.6803 78.7342 43.7129 78.7976 43.776C78.8609 43.8403 78.8931 43.9225 78.8931 44.0239V45.3176C78.8931 45.4088 78.8609 45.49 78.7976 45.5587C78.7342 45.6274 78.6531 45.6624 78.5531 45.6624H72.1076C72.0165 45.6601 71.9376 45.6252 71.8698 45.5564Z" fill="white"/>
<path id="Vector_11" d="M81.2187 44.8409C80.491 44.2031 80.1032 43.2791 80.0587 42.0678C80.0499 41.8199 80.0454 41.4165 80.0454 40.8564C80.0454 40.2874 80.0499 39.8749 80.0587 39.618C80.1043 38.4258 80.4976 37.5052 81.2387 36.8584C81.9799 36.2116 82.9843 35.8882 84.251 35.8882C85.0465 35.8882 85.7621 36.0234 86.3954 36.2938C87.0287 36.5643 87.5287 36.9497 87.8954 37.45C88.2621 37.9503 88.4499 38.5351 88.4587 39.2045V39.2315C88.4587 39.3048 88.4287 39.3667 88.371 39.4174C88.3121 39.4682 88.2465 39.4929 88.1743 39.4929H86.3421C86.2243 39.4929 86.1343 39.4682 86.071 39.4174C86.0076 39.3667 85.9532 39.2732 85.9076 39.1357C85.781 38.6681 85.5821 38.3402 85.311 38.152C85.0399 37.9638 84.6821 37.8703 84.2387 37.8703C83.171 37.8703 82.6187 38.4754 82.5832 39.6868C82.5743 39.9347 82.5699 40.3155 82.5699 40.8294C82.5699 41.3432 82.5743 41.7331 82.5832 41.999C82.6187 43.2104 83.171 43.8155 84.2387 43.8155C84.6821 43.8155 85.0443 43.7175 85.3243 43.5191C85.6043 43.3219 85.7999 42.9985 85.9076 42.5489C85.9432 42.4115 85.9932 42.3168 86.0565 42.2672C86.1199 42.2165 86.2143 42.1917 86.341 42.1917H88.1732C88.2543 42.1917 88.3243 42.2188 88.3832 42.274C88.4421 42.3292 88.4665 42.3979 88.4576 42.4802C88.4487 43.1495 88.261 43.7344 87.8943 44.2347C87.5276 44.735 87.0276 45.1204 86.3943 45.3908C85.761 45.6613 85.0465 45.7965 84.2499 45.7965C82.9576 45.7976 81.9465 45.4787 81.2187 44.8409Z" fill="white"/>
<path id="Vector_12" d="M89.9777 45.5632C89.9144 45.499 89.8833 45.4167 89.8833 45.3153V36.3705C89.8833 36.269 89.9177 36.1868 89.9855 36.1225C90.0533 36.0583 90.1322 36.0256 90.2233 36.0256H91.9733C92.0733 36.0256 92.1566 36.0583 92.2244 36.1225C92.2922 36.1868 92.3266 36.269 92.3266 36.3705V39.6867H95.6644V36.3705C95.6644 36.269 95.6955 36.1868 95.7589 36.1225C95.8222 36.0583 95.9033 36.0256 96.0033 36.0256H97.7533C97.8522 36.0256 97.9344 36.0583 97.9977 36.1225C98.0611 36.1868 98.0922 36.269 98.0922 36.3705V45.3153C98.0922 45.4167 98.06 45.499 97.9977 45.5632C97.9344 45.6274 97.8533 45.659 97.7533 45.659H96.0033C95.9033 45.659 95.8222 45.6274 95.7589 45.5632C95.6955 45.499 95.6644 45.4167 95.6644 45.3153V41.8886H92.3266V45.3153C92.3266 45.4167 92.2922 45.499 92.2244 45.5632C92.1566 45.6274 92.0733 45.659 91.9733 45.659H90.2222C90.1233 45.6601 90.0411 45.6274 89.9777 45.5632Z" fill="white"/>
</g>
</g>
</svg>